<?xml version="1.0" encoding="UTF-8"?>
<svg width="469px" height="748px" viewBox="0 0 469 748" version="1.1" xmlns="http://www.w3.org/2000/svg" xmlns:xlink="http://www.w3.org/1999/xlink">
    <!-- Generator: Sketch 60 (88103) - https://sketch.com -->
    <title>assistant</title>
    <desc>Created with Sketch.</desc>
    <defs>
        <radialGradient cx="21.873965%" cy="14.0513687%" fx="21.873965%" fy="14.0513687%" r="126.435084%" gradientTransform="translate(0.218740,0.140514),scale(1.000000,0.699612),rotate(58.013758),translate(-0.218740,-0.140514)" id="radialGradient-1">
            <stop stop-color="#FFFFFF" stop-opacity="0" offset="0%"></stop>
            <stop stop-color="#FFFFFF" stop-opacity="0.374590253" offset="100%"></stop>
        </radialGradient>
        <linearGradient x1="21.873965%" y1="35.3877496%" x2="88.8486037%" y2="65.8839321%" id="linearGradient-2">
            <stop stop-color="#FFFFFF" stop-opacity="0.119591346" offset="0%"></stop>
            <stop stop-color="#FFFFFF" stop-opacity="0.283653846" offset="100%"></stop>
        </linearGradient>
        <radialGradient cx="30.0398407%" cy="41.5826841%" fx="30.0398407%" fy="41.5826841%" r="159.664585%" gradientTransform="translate(0.300398,0.415827),scale(1.000000,0.971963),rotate(41.059827),translate(-0.300398,-0.415827)" id="radialGradient-3">
            <stop stop-color="#FFFFFF" stop-opacity="0" offset="0%"></stop>
            <stop stop-color="#D8D8D8" offset="100%"></stop>
        </radialGradient>
        <linearGradient x1="50%" y1="0%" x2="50%" y2="100%" id="linearGradient-4">
            <stop stop-color="#D8D8D8" stop-opacity="0.181845498" offset="0%"></stop>
            <stop stop-color="#EEEEEE" stop-opacity="0.364237325" offset="100%"></stop>
        </linearGradient>
        <linearGradient x1="50%" y1="0%" x2="51.0204082%" y2="63.1112022%" id="linearGradient-5">
            <stop stop-color="#EEEEEE" stop-opacity="0" offset="0%"></stop>
            <stop stop-color="#D8D8D8" stop-opacity="0.471235795" offset="100%"></stop>
        </linearGradient>
        <linearGradient x1="50%" y1="0%" x2="50%" y2="100%" id="linearGradient-6">
            <stop stop-color="#EEEEEE" stop-opacity="0.175508086" offset="0%"></stop>
            <stop stop-color="#FFFFFF" stop-opacity="0.461838942" offset="100%"></stop>
        </linearGradient>
        <linearGradient x1="73.0737711%" y1="33.7369373%" x2="9.980586%" y2="67.6171112%" id="linearGradient-7">
            <stop stop-color="#EEEEEE" stop-opacity="0.269722465" offset="0%"></stop>
            <stop stop-color="#D8D8D8" stop-opacity="0.486833479" offset="100%"></stop>
        </linearGradient>
    </defs>
    <g id="Page-1" stroke="none" stroke-width="1" fill="none" fill-rule="evenodd">
        <g id="assistant" transform="translate(4.000000, 5.000000)">
            <path d="M153,253 L127,434 L139,471 L213.5,490 C236.040143,485.595347 252.540143,480.762014 263,475.5 C273.459857,470.237986 284.126523,463.737986 295,456 L307.5,422 L258,248 L235,249 L212,236 L202,232 L153,253 Z" id="Path-17" stroke-opacity="0.458369755" stroke="#FFFFFF" fill="url(#radialGradient-1)"></path>
            <polygon id="Path-18" stroke-opacity="0.458369755" stroke="#FFFFFF" fill="url(#linearGradient-2)" points="201 20 228.5 0 282.720245 6.81351021 316.593425 39 334 87 356 113.834907 351.5 142.5 320.815884 146 295 136 278.5 73 228.5 49 191 53 158.282615 75.9912607 131.395959 53 127 33.0131608 161 20"></polygon>
            <path d="M191,207 C198.393922,209.984855 207.89335,212 216.085798,212 C218.416343,212 220.72269,211.86932 223,211.613658" id="Path" stroke="#EEEEEE" stroke-width="8.033747"></path>
            <path d="M250.563714,203 C276.833968,189.972295 295,162.136649 295,129.933085 C295,85.2649817 260.049469,49 217,49 C173.950842,49 139,85.2649817 139,129.933085 C139,154.205377 149.60553,176.839447 165.937084,191.679076 L194,209.5 L220,209.5 L250.563714,203 Z" id="Path" stroke="#EEEEEE" stroke-width="8.033747" fill="url(#radialGradient-3)"></path>
            <ellipse id="Oval" stroke="#EEEEEE" stroke-width="5.033747" fill="#EEEEEE" cx="169.5" cy="110" rx="10.5" ry="10"></ellipse>
            <ellipse id="Oval" stroke="#EEEEEE" stroke-width="5.033747" fill="#EEEEEE" cx="243.5" cy="110" rx="10.5" ry="10"></ellipse>
            <ellipse id="Oval" stroke="#EEEEEE" stroke-width="8.033747" fill="#EEEEEE" cx="194" cy="142.5" rx="5" ry="3.5"></ellipse>
            <path d="M267,98 C267,98 260.446677,84.1559289 245,86.2073854" id="Path" stroke="#EEEEEE" stroke-width="4.033747"></path>
            <path d="M188,88 C188,88 172.656886,74.816872 161,84.6339582" id="Path" stroke="#EEEEEE" stroke-width="4.033747"></path>
            <path d="M238,158 C238,158 192.967423,182.706596 167,163.340994 C167,163.340994 170.974483,191.615093 199.260224,189.927339 C227.545964,188.239585 238,158 238,158 Z" id="Path" stroke="#EEEEEE" stroke-width="2.033747" fill="#EEEEEE"></path>
            <path d="M296.687029,136 C296.687029,136 312.868018,133.980713 309.552029,113.629483 C305.69032,89.9254209 286.677515,69.1451 239,53" id="Path" stroke="#EEEEEE" stroke-width="8.033747"></path>
            <path d="M158.282615,75.9912607 C158.282615,75.9912607 116.03822,50.5790938 129.731484,32.7989135 C144.429528,13.7144911 207.163582,14.917257 268.35938,43.5740747 C301.033877,58.8748439 378.817333,104.839245 349.532085,139.743891 C337.146918,154.505945 297.108956,138.512091 297.108956,138.512091" id="Path" stroke="#EEEEEE" stroke-width="8.033747"></path>
            <path d="M195,21.53842 C195,21.53842 227.245119,-13.7346803 278.47277,5.99849013 C329.700421,25.7316605 334,87 334,87" id="Path" stroke="#EEEEEE" stroke-width="8.033747"></path>
            <path d="M208.041009,214 C220.515238,214.057472 224.335494,235.27709 208.840397,233.939304 C195.496966,232.787625 201.932438,213.971886 208.041009,214 L208.041009,214 Z" id="Path" stroke="#EEEEEE" stroke-width="5.033747"></path>
            <path d="M202,217.58118 C202,217.58118 196.710338,212.085795 189.06996,206.131756 C186.208877,203.902091 183.018057,201.607946 179.651651,199.514244 C174.55712,196.345389 169.061293,193.635188 163.699127,192.300366 C160.290794,191.446663 156.653915,192.445373 154.300362,194.881315 C151.946494,197.316965 151.278509,200.773208 152.573814,203.813103 C156.078924,212.033569 158.718081,223.959737 150.9059,233.475929 C149.185656,235.563504 148.588599,238.263202 149.28401,240.808556 C150.277634,244.631255 153.840433,248.893351 164.943364,247.836288 C184.214694,246.001964 201.688862,232.360221 201.688862,232.360221" id="Path" stroke="#EEEEEE" stroke-width="8.033747"></path>
            <path d="M199,223.358035 C199,223.358035 178.312145,226.984239 167,217" id="Path" stroke="#EEEEEE" stroke-width="5.033747"></path>
            <path d="M176,222.010865 C176,222.010865 170.378574,221.417535 164,229" id="Path" stroke="#EEEEEE" stroke-width="5.033747"></path>
            <path d="M213.95866,217.273352 C213.95866,217.273352 227.643207,204.907024 241.70925,202.22944 C245.321055,201.565768 249.07147,202.357537 251.99563,204.40159 C254.919472,206.445642 256.731574,209.542006 256.965558,212.894275 C257.183328,215.838197 257.366445,219.717346 257.501876,224.816319 C257.998456,243.463188 262.187908,256.605056 233.752852,248.616356 C215.471923,243.480287 212,233.92051 212,233.92051" id="Path" stroke="#EEEEEE" stroke-width="8.033747"></path>
            <path d="M239,224 C239,224 230.745478,229.5221 218,225.582369" id="Path" stroke="#EEEEEE" stroke-width="5.033747"></path>
            <path d="M233,228 C233,228 239.198441,229.055162 243,236" id="Path" stroke="#EEEEEE" stroke-width="5.033747"></path>
            <line x1="220" y1="243" x2="207" y2="280" id="Path" stroke="#EEEEEE" stroke-width="8.033747"></line>
            <line x1="191" y1="238" x2="201" y2="277" id="Path" stroke="#EEEEEE" stroke-width="8.033747"></line>
            <path d="M197.120242,277.529343 C193.258972,279.156607 191.862813,284.049094 194.00413,288.448314 C196.145447,292.847533 201.0188,295.097887 204.879758,293.470624 C208.741028,291.84365 210.137187,286.950873 207.99587,282.551653 C205.854553,278.152723 200.9812,275.90208 197.120242,277.529343 Z" id="Path" stroke="#EEEEEE" stroke-width="8.033747"></path>
            <path d="M194.250943,288.467609 C194.250943,288.467609 197.287252,296.374372 204.459405,304.530395 C209.378713,310.116764 212.331235,316.948573 212.923678,324.11618 C213.841574,335.209568 215.035838,349.660068 215.035838,349.660068 C215.035838,349.660068 198.59469,349.628443 201.287413,366.136851 C203.980136,382.64526 222.184231,376.901055 220.939007,411.865669 C219.693471,446.83057 215.015204,491 215.015204,491 C215.015204,491 198.94109,485.245157 161.537157,478.513685 C124.133538,471.782213 126.691203,443.391235 127.253945,429.035609 C127.765728,415.966537 155.047173,248 155.047173,248" id="Path" stroke="#EEEEEE" stroke-width="8.033747"></path>
            <path d="M208.13706,351.070323 C203.27814,351.719538 200.168405,356.696222 201.19639,362.176611 C202.224697,367.656729 207.004021,371.578948 211.86294,370.929732 C216.72186,370.280245 219.831595,365.303833 218.80361,359.823444 C217.775303,354.343054 212.995979,350.420835 208.13706,351.070323 Z" id="Path" stroke="#EEEEEE" stroke-width="8.033747"></path>
            <path d="M254.763878,249 C254.763878,249 270.046901,256.260995 285.758889,330.041398 C301.028216,401.745668 314.986991,431.810735 295.324982,455.227805 C289.190293,462.532832 280.933818,468.072831 271.519949,471.200555 C254.225649,476.967046 215,490 215,490" id="Path" stroke="#EEEEEE" stroke-width="8.033747"></path>
            <path d="M173,480 C173,480 152.509645,475.278611 148,449" id="Path" stroke="#EEEEEE" stroke-width="8.033747"></path>
            <path d="M252,478 C252,478 272.501869,466.745245 274,444" id="Path" stroke="#EEEEEE" stroke-width="8.033747"></path>
            <g id="Group-6" transform="translate(0.000000, 39.000000)" stroke="#EEEEEE" stroke-width="8.033747">
                <path d="M153,213.417009 C153,213.417009 55.0998349,225.452259 21.9363192,140.15687 C14.0641477,120.000098 14.0201972,97.9748562 21.8120019,77.7919258 C28.3339497,60.9403346 41.0987592,41.9247671 65.8203159,27" id="Path"></path>
                <path d="M65.2200057,28.2821559 C65.2200057,28.2821559 91.1879834,51.0578216 104.882485,28.9279481 C117.794799,8.0617934 86.8551049,-11.3700017 58.5567716,7.92620002 C30.2581267,27.2224017 -52.7982669,119.60602 49.9542752,203.878741 C89.4637446,236.282685 149,228.070955 149,228.070955" id="Path"></path>
            </g>
            <path d="M262,258 C262,258 366.882707,289.006077 425.423371,388.584229 C425.423371,388.584229 437.124359,396.266783 440.150277,409.294669 C442.288726,418.501187 441.69802,434.582444 422.522176,433.983744 C396.748916,433.17908 409.796775,395.249852 409.796775,395.249852" id="Path" stroke="#EEEEEE" stroke-width="8.033747"></path>
            <path d="M410,395 C410,395 348.011562,300.888273 271,276" id="Path" stroke="#EEEEEE" stroke-width="8.033747"></path>
            <path d="M438,426.441236 L452.60285,434 L459,424.450943 C459,424.450943 449.82873,417.974605 440.523665,414" id="Path" stroke="#EEEEEE" stroke-width="8.033747"></path>
            <path d="M407.469147,415.407624 C407.469147,415.407624 388.260181,407.400102 394.107661,429.582459 C399.955141,451.765102 463.668403,553.528915 454.00412,736" id="Path" stroke="#EEEEEE" stroke-width="8.033747"></path>
            <path d="M407.040628,402.284554 C407.040628,402.284554 353.785817,381.950755 386.78545,462.61004 C387.00039,463.134887 387.211898,463.661173 387.419974,464.18861 C389.231519,468.85152 397.680926,491.03063 403.158299,513.444251 C404.682218,519.7804 405.131127,526.296389 404.48974,532.759433 C403.984678,538.163575 405.796848,549.38132 418.380021,571.611648 C421.736698,577.578332 423.006683,584.357608 422.015277,591.017182 C421.094687,597.208307 421.624081,607.634465 427.371923,624.5041 C438.790554,658.018355 431.576505,690.959133 438.572494,738 L451,737.828504" id="Path" stroke="#EEEEEE" stroke-width="8.033747"></path>
            <path d="M272.824706,471 C272.824706,471 292.107812,585.852247 284.017184,645.273376 C283.561129,648.051728 281.769329,650.476486 279.161156,651.84565 C276.552983,653.214526 273.419628,653.374622 270.669224,652.279579 C270.661578,652.295703 270.660966,652.295703 270.66066,652.295415 C266.4228,650.607788 263.992339,646.381377 264.808406,642.118109 C267.373145,626.128408 272.100401,576.067694 255,477.558453" id="Path" stroke="#EEEEEE" stroke-width="8.033747" fill="url(#linearGradient-4)"></path>
            <path d="M181.343273,483.282168 C181.343273,483.282168 184.701713,564.384312 187.478909,602.978525 C188.293485,612.022046 188.152908,621.114302 187.058141,630.134316 C186.649569,633.609417 186.104272,637.737857 185.405239,642.559195 C185.013036,645.362325 182.504798,647.551966 179.358507,647.83807 C178.895053,647.881645 178.419081,647.924933 177.938295,647.968795 C175.837987,648.159722 173.757898,647.46711 172.310084,646.094499 C170.862271,644.722175 170.211701,642.826091 170.549985,640.964696 C171.114539,634.617948 171.325404,624.037837 169.77617,608.037519 C166.903651,578.369002 164,480 164,480" id="Path" stroke="#EEEEEE" stroke-width="8.033747" fill="url(#linearGradient-5)"></path>
            <path d="M284.272318,643.404049 C284.272318,643.404049 326.036216,656.136697 345.774141,675.641975 C355.558314,685.284922 356.743473,699.770365 348.635226,710.618643 C348.637433,710.620074 348.637433,710.62036 348.637433,710.62036 C345.13964,715.300391 338.568002,717.202494 332.730153,715.224307 C318.956473,710.515673 293.24138,700.652769 269.624269,685.695661 C264.447713,682.373703 261.286871,677.041809 261.085142,671.291451 C260.814699,663.273444 261.058665,651.155762 263.758997,640" id="Path" stroke="#EEEEEE" stroke-width="8.033747" fill="url(#linearGradient-6)"></path>
            <path d="M184.999478,637.563674 C184.999478,637.563674 195.161593,650.536794 195.991615,673.49013 C196.198733,679.429187 192.553573,684.895511 186.769118,687.320149 C164.571844,696.449564 108.580523,716.173341 102.538795,685.400475 C94.9831523,646.91755 169.391294,636 169.391294,636" id="Path" stroke="#EEEEEE" stroke-width="8.033747" fill="url(#linearGradient-7)"></path>
            <path d="M453,714 C453,714 451.374935,717.207891 444,721" id="Path" stroke="#EEEEEE" stroke-width="8.033747"></path>
            <path d="M453,695 C453,695 450.805792,697.153161 446,702" id="Path" stroke="#EEEEEE" stroke-width="8.033747"></path>
            <path d="M451,675 C451,675 448.862441,677.633407 444,682" id="Path" stroke="#EEEEEE" stroke-width="8.033747"></path>
            <path d="M452,653 C452,653 447.680154,660.345963 436,670" id="Path" stroke="#EEEEEE" stroke-width="8.033747"></path>
            <path d="M449,623 C449,623 447.438064,625.33883 433,638" id="Path" stroke="#EEEEEE" stroke-width="8.033747"></path>
            <path d="M428,618 C428,618 432.147145,617.013456 441,606" id="Path" stroke="#EEEEEE" stroke-width="8.033747"></path>
            <path d="M441,575 C441,575 439.109668,579.690702 432,587" id="Path" stroke="#EEEEEE" stroke-width="8.033747"></path>
            <path d="M434,538 C434,538 431.480054,541.869535 422,546" id="Path" stroke="#EEEEEE" stroke-width="8.033747"></path>
            <path d="M425,514 C425,514 416.926796,523.783987 406,531" id="Path" stroke="#EEEEEE" stroke-width="8.033747"></path>
            <path d="M402,504 C402,504 406.688862,503.365114 412,497" id="Path" stroke="#EEEEEE" stroke-width="8.033747"></path>
            <path d="M410,472 C410,472 406.917829,475.538787 401,479" id="Path" stroke="#EEEEEE" stroke-width="8.033747"></path>
            <path d="M404,455.852267 C404,455.852267 396.18758,458.932912 385,455" id="Path" stroke="#EEEEEE" stroke-width="8.033747"></path>
            <path d="M393,427 C393,427 383.851053,425.830827 378,422" id="Path" stroke="#EEEEEE" stroke-width="8.033747"></path>
        </g>
    </g>
</svg>