<?xml version="1.0" encoding="UTF-8"?>
<svg width="233px" height="281px" viewBox="0 0 233 281" version="1.1" xmlns="http://www.w3.org/2000/svg" xmlns:xlink="http://www.w3.org/1999/xlink">
    <!-- Generator: Sketch 60 (88103) - https://sketch.com -->
    <title>portal</title>
    <desc>Created with Sketch.</desc>
    <defs>
        <radialGradient cx="27.0601231%" cy="37.3720338%" fx="27.0601231%" fy="37.3720338%" r="85.6823772%" gradientTransform="translate(0.270601,0.373720),scale(1.000000,0.829181),rotate(90.000000),translate(-0.270601,-0.373720)" id="radialGradient-1">
            <stop stop-color="#FFFFFF" stop-opacity="0.877813593" offset="0%"></stop>
            <stop stop-color="#FFFFFF" stop-opacity="0.792914117" offset="100%"></stop>
        </radialGradient>
        <radialGradient cx="27.0601231%" cy="37.3720338%" fx="27.0601231%" fy="37.3720338%" r="71.0462416%" gradientTransform="translate(0.270601,0.373720),scale(0.615385,1.000000),rotate(90.000000),translate(-0.270601,-0.373720)" id="radialGradient-2">
            <stop stop-color="#FFFFFF" stop-opacity="0.877813593" offset="0%"></stop>
            <stop stop-color="#FFFFFF" stop-opacity="0.571022727" offset="100%"></stop>
        </radialGradient>
        <linearGradient x1="50%" y1="0%" x2="50%" y2="100%" id="linearGradient-3">
            <stop stop-color="#C3DD2A" offset="0%"></stop>
            <stop stop-color="#C9EA92" stop-opacity="0.427529502" offset="100%"></stop>
        </linearGradient>
    </defs>
    <g id="Page-1" stroke="none" stroke-width="1" fill="none" fill-rule="evenodd">
        <g id="portal">
            <path d="M210.420223,250.109368 L210.420223,16.1998562 C210.420223,11.1002692 206.258987,6.9009992 201.204956,6.9009992 L120.365015,6.9009992 L98.0745539,0.303957865 C97.4832699,0 96.8808189,0 96.5907604,0 C95.3970254,0 94.2144574,0.303957865 93.0207224,1.20456309 C91.5369289,2.40912618 90.6444194,3.90637876 90.6444194,5.7075892 L90.6444194,6.91215229 L31.2047142,6.91215229 C27.0434779,6.91215229 23.7744655,10.2105289 23.7744655,14.4097988 L23.7744655,250.109022 L5.64524116,250.109022 C2.37651434,250.109022 0,252.810837 0,255.805458 C0,259.103823 2.67753995,261.501883 5.64524116,261.501883 L90.9348777,261.501883 L90.9348777,274.999721 C90.9348777,276.800932 91.8273872,278.298098 93.0099552,279.502747 C93.9024647,280.403353 95.3862582,281 96.5799932,281 L97.4725027,281 L183.95596,266.004992 C186.332263,265.701034 187.816171,263.911092 188.418507,261.80601 L227.35477,261.80601 C230.623497,261.80601 233,259.104195 233,256.109574 C233,252.811212 230.623697,250.109396 227.35477,250.109396 L210.420223,250.109368 Z M203.203838,13.3250795 L203.203838,253.900126 L187.013413,253.900126 L187.013413,27.0356566 C187.013413,24.2280759 184.233922,22.0520885 180.533863,21.1162283 L141.203838,13.3250795 L203.203838,13.3250795 Z M97.4912136,8.02643357 L180.491214,31.3995803 L180.491214,259.515886 L97.4912136,273.226164 L97.4912136,8.02643357 Z M50.7866411,20.1809371 C45.8443581,20.1809371 41.9617657,23.6084316 41.9617657,27.9720858 L41.9617657,253.899227 L31.7193337,253.899227 L31.7193337,13.3247501 L97.7193337,13.3247501 L97.7193337,20.1800386 L50.7866411,20.1809371 Z M52.5737344,32.0194941 L89.6096093,32.0194941 L89.6096093,253.900725 L52.5737344,253.900725 L52.5737344,32.0194941 Z" id="Fill-1" fill="url(#radialGradient-1)"></path>
            <path d="M118.957276,180.999497 C127.137298,180.999497 130.277254,173.919777 130.277254,170.235484 L139.708605,170.235484 C141.278523,170.235484 142.848561,169.623367 144.111373,168.387572 C145.374185,167.151778 146,165.927543 146,164.07972 L146,163.155764 C146,161.619691 145.374396,160.0835 144.111373,158.847912 C142.84835,157.612117 141.278432,157 139.708605,157 L123.667059,157 L119.264292,157 C116.124336,157 112.972897,158.235795 110.777254,160.072264 C108.581733,161.920176 107,164.992441 107,168.376337 L107,168.688176 C107.011785,175.767896 112.358866,181 118.957276,181 L118.957276,180.999497 Z" id="Fill-2" fill="url(#radialGradient-2)"></path>
            <rect id="Rectangle" fill="url(#linearGradient-3)" x="52" y="32" width="38" height="222"></rect>
        </g>
    </g>
</svg>