<?xml version="1.0" encoding="UTF-8"?>
<svg width="210px" height="210px" viewBox="0 0 210 210" version="1.1" xmlns="http://www.w3.org/2000/svg" xmlns:xlink="http://www.w3.org/1999/xlink">
    <!-- Generator: Sketch 60 (88103) - https://sketch.com -->
    <title>Fill 1</title>
    <desc>Created with Sketch.</desc>
    <defs>
        <radialGradient cx="43.7671136%" cy="42.4152397%" fx="43.7671136%" fy="42.4152397%" r="100%" id="radialGradient-1">
            <stop stop-color="#FFFFFF" stop-opacity="0.356643357" offset="0%"></stop>
            <stop stop-color="#FFFFFF" offset="100%"></stop>
        </radialGradient>
    </defs>
    <g id="Page-1" stroke="none" stroke-width="1" fill="none" fill-rule="evenodd">
        <g id="Morning" transform="translate(-18528.000000, -371.000000)" fill="url(#radialGradient-1)">
            <path d="M18707.385,371 L18558.6318,371 C18541.7408,371 18528,384.7403 18528,401.6222 L18528,550.3694 C18528,567.259702 18541.7408,581 18558.6234,581 L18707.3766,581 C18724.2675,581 18738,567.259702 18738,550.3778 L18738,401.6306 C18738.0082,384.7403 18724.2673,371 18707.385,371 Z M18703,489.550789 C18703,491.948797 18701.0394,493.898275 18698.6276,493.898275 L18606.749,493.898275 L18606.749,515.65241 C18606.749,517.300069 18605.8138,518.800892 18604.3372,519.543222 C18603.7138,519.845019 18603.0411,520 18602.3766,520 C18601.4496,520 18600.5226,519.706367 18599.7515,519.127224 L18564.7473,493.025604 C18563.6481,492.209939 18563,490.913043 18563,489.550748 C18563,488.188452 18563.6481,486.891723 18564.7473,486.067747 L18599.7515,459.966127 C18601.0723,458.971008 18602.8607,458.824171 18604.3291,459.558294 C18605.8139,460.300562 18606.749,461.801363 18606.749,463.449106 L18606.749,485.203241 L18694.2553,485.203241 L18694.2553,437.347486 C18694.2553,434.949478 18696.2159,433 18698.6276,433 C18701.0394,433 18703,434.949457 18703,437.347486 L18703,489.550789 Z" id="Fill-1"></path>
        </g>
    </g>
</svg>