<?xml version="1.0" encoding="UTF-8"?>
<svg width="225px" height="147px" viewBox="0 0 225 147" version="1.1" xmlns="http://www.w3.org/2000/svg" xmlns:xlink="http://www.w3.org/1999/xlink">
    <!-- Generator: Sketch 60 (88103) - https://sketch.com -->
    <title>keys-end</title>
    <desc>Created with Sketch.</desc>
    <defs>
        <radialGradient cx="156.339425%" cy="-28.4316993%" fx="156.339425%" fy="-28.4316993%" r="247.394129%" id="radialGradient-1">
            <stop stop-color="#FFFFFF" stop-opacity="0.607708698" offset="0%"></stop>
            <stop stop-color="#FFFFFF" offset="35.9982052%"></stop>
        </radialGradient>
        <radialGradient cx="156.339425%" cy="-28.4316993%" fx="156.339425%" fy="-28.4316993%" r="247.394136%" id="radialGradient-2">
            <stop stop-color="#FFFFFF" stop-opacity="0.607708698" offset="0%"></stop>
            <stop stop-color="#FFFFFF" offset="35.9982052%"></stop>
        </radialGradient>
        <radialGradient cx="156.339425%" cy="-28.4316993%" fx="156.339425%" fy="-28.4316993%" r="254.9915%" gradientTransform="translate(1.563394,-0.284317),scale(0.666667,1.000000),rotate(71.030913),translate(-1.563394,0.284317)" id="radialGradient-3">
            <stop stop-color="#FFFFFF" stop-opacity="0.607708698" offset="0%"></stop>
            <stop stop-color="#FFFFFF" offset="35.9982052%"></stop>
        </radialGradient>
        <radialGradient cx="156.339425%" cy="-28.4316993%" fx="156.339425%" fy="-28.4316993%" r="365.912372%" gradientTransform="translate(1.563394,-0.284317),scale(1.000000,0.666667),rotate(81.314287),translate(-1.563394,0.284317)" id="radialGradient-4">
            <stop stop-color="#FFFFFF" stop-opacity="0.607708698" offset="0%"></stop>
            <stop stop-color="#FFFFFF" offset="35.9982052%"></stop>
        </radialGradient>
    </defs>
    <g id="Page-1" stroke="none" stroke-width="1" fill="none" fill-rule="evenodd">
        <g id="keys-end">
            <path d="M63.8515133,147 L5.14848947,147 C2.30171532,147 0,144.698511 0,141.851513 L0,83.1484869 C0,80.3017126 2.30149194,78 5.14848947,78 L63.8515133,78 C66.6982875,78 69,80.3014892 69,83.1484869 L69,141.851513 C69,144.698287 66.6985109,147 63.8515133,147 Z M10.2947423,136.703305 L58.7024682,136.703305 L58.7024682,88.2955776 L10.2947423,88.2955776 L10.2947423,136.703305 Z" id="Fill-1" fill="url(#radialGradient-1)"></path>
            <path d="M141.851478,147 L83.148484,147 C80.3017113,147 78,144.698511 78,141.851513 L78,83.1484869 C78,80.3017126 80.301488,78 83.148484,78 L141.851478,78 C144.69825,78 147,80.3014892 147,83.1484869 L147,141.851513 C147.010852,144.698287 144.698474,147 141.851478,147 Z M88.3059035,136.703305 L136.713604,136.703305 L136.713604,88.2955776 L88.3059035,88.2955776 L88.3059035,136.703305 Z" id="Fill-2" fill="url(#radialGradient-2)" opacity="0.35"></path>
            <path d="M141.851478,69 L83.148484,69 C80.3017113,69 78,66.6985108 78,63.8515131 L78,5.14848688 C78,2.30171263 80.301488,0 83.148484,0 L141.851478,0 C144.69825,0 147,2.30148924 147,5.14848688 L147,63.8515131 C147.010852,66.6982874 144.698474,69 141.851478,69 Z M88.3059035,58.7033055 L136.713604,58.7033055 L136.713604,10.2955776 L88.3059035,10.2955776 L88.3059035,58.7033055 Z" id="Fill-3" fill="url(#radialGradient-2)" opacity="0.35"></path>
            <path d="M219.851513,147 L161.148487,147 C158.301713,147 156,144.698511 156,141.851513 L156,83.1484869 C156,80.3017126 158.301489,78 161.148487,78 L219.851513,78 C222.698287,78 225,80.3014892 225,83.1484869 L225,141.851513 C225,144.698287 222.698511,147 219.851513,147 Z M166.29474,136.703305 L214.702468,136.703305 L214.702468,88.2955776 L166.29474,88.2955776 L166.29474,136.703305 Z" id="Fill-4" fill="url(#radialGradient-1)" opacity="0.35"></path>
            <path d="M102.178869,39 C100.852289,39 99.5366837,38.5005094 98.5170647,37.5016115 C96.4998025,35.5037879 96.4888285,32.2573767 98.5170647,30.2485737 L108.340254,20.4983607 C109.316006,19.5320117 110.631612,19 112.002059,19 C113.372506,19 114.688084,19.5428799 115.663864,20.4983607 L125.487053,30.226893 C127.504316,32.2247166 127.504316,35.4711278 125.487053,37.4799307 C123.469791,39.4777543 120.191793,39.4777543 118.163444,37.4799307 L112.002059,31.3779173 L105.829728,37.4907711 C104.832057,38.4896968 103.505505,39 102.178869,39 L102.178869,39 Z" id="Fill-5" fill="url(#radialGradient-3)" opacity="0.35"></path>
            <path d="M111.993881,127 C110.669475,127 109.356025,126.500266 108.349005,125.500827 L98.5200566,115.767022 C96.4951442,113.768116 96.4951442,110.519945 98.5091007,108.510054 C100.523085,106.500162 103.795684,106.500273 105.820708,108.49918 L112.004781,114.615346 L118.177925,108.49918 C120.191881,106.500273 123.464508,106.500273 125.489533,108.49918 C127.503489,110.498086 127.503489,113.746257 125.489533,115.756148 L115.671512,125.489953 C114.642636,126.48942 113.318258,127 111.993853,127 L111.993881,127 Z" id="Fill-6" fill="url(#radialGradient-3)" opacity="0.35"></path>
            <path d="M190.141549,127 C188.827307,127 187.513092,126.495834 186.5138,125.487585 C184.515298,123.47106 184.515298,120.19426 186.5138,118.166652 L192.617883,112.007519 L186.502956,105.837443 C184.504454,103.820918 184.493583,100.544117 186.502956,98.5165103 C188.501457,96.4999852 191.74897,96.4890153 193.758454,98.5165103 L203.501131,108.33611 C204.467808,109.311505 205,110.62663 205,111.996577 C205,113.366523 204.456936,114.68162 203.501131,115.657043 L193.769298,125.476643 C192.770034,126.495862 191.455819,127 190.141549,127 L190.141549,127 Z" id="Fill-7" fill="url(#radialGradient-4)" opacity="0.35"></path>
            <path d="M34.8801391,127 C33.5658968,127 32.2625263,126.495608 31.2523899,125.486852 L21.4988691,115.662312 C20.5321922,114.686426 20,113.370639 20,112 C20,110.629396 20.5430641,109.313609 21.4988691,108.337695 L31.2307018,98.5131547 C33.2292032,96.4956151 36.4767158,96.4956151 38.4862002,98.5131547 C40.4847016,100.530694 40.4847016,103.809144 38.4862002,105.837771 L32.3821167,112 L38.4970443,118.173183 C40.4955456,120.190723 40.5064175,123.469172 38.4970443,125.4978 C37.5086515,126.484633 36.194437,127 34.8801391,127 Z" id="Fill-8" fill="url(#radialGradient-4)"></path>
        </g>
    </g>
</svg>