<?xml version="1.0" encoding="UTF-8"?>
<svg width="1412px" height="95px" viewBox="0 0 1412 95" version="1.1" xmlns="http://www.w3.org/2000/svg" xmlns:xlink="http://www.w3.org/1999/xlink">
    <!-- Generator: Sketch 60 (88103) - https://sketch.com -->
    <title>Group 2</title>
    <desc>Created with Sketch.</desc>
    <defs>
        <linearGradient x1="50%" y1="0%" x2="50%" y2="66.1887397%" id="linearGradient-1">
            <stop stop-color="#FFFFFF" stop-opacity="0.55" offset="0%"></stop>
            <stop stop-color="#FFFFFF" stop-opacity="0" offset="100%"></stop>
        </linearGradient>
        <linearGradient x1="50%" y1="0%" x2="50%" y2="100%" id="linearGradient-2">
            <stop stop-color="#FFFFFF" stop-opacity="0.6" offset="0%"></stop>
            <stop stop-color="#FFFFFF" stop-opacity="0.75" offset="100%"></stop>
        </linearGradient>
        <linearGradient x1="50%" y1="0%" x2="50%" y2="100%" id="linearGradient-3">
            <stop stop-color="#FFFFFF" stop-opacity="0.6" offset="0%"></stop>
            <stop stop-color="#FFFFFF" stop-opacity="0.75" offset="100%"></stop>
        </linearGradient>
        <linearGradient x1="50%" y1="0%" x2="50%" y2="100%" id="linearGradient-4">
            <stop stop-color="#FFFFFF" stop-opacity="0.6" offset="0%"></stop>
            <stop stop-color="#FFFFFF" stop-opacity="0.75" offset="100%"></stop>
        </linearGradient>
        <linearGradient x1="50%" y1="100%" x2="50%" y2="41.2030194%" id="linearGradient-5">
            <stop stop-color="#FFFFFF" stop-opacity="0.124945367" offset="0%"></stop>
            <stop stop-color="#FFFFFF" stop-opacity="0.612680288" offset="100%"></stop>
        </linearGradient>
        <linearGradient x1="50%" y1="0%" x2="50%" y2="100%" id="linearGradient-6">
            <stop stop-color="#FFFFFF" stop-opacity="0.6" offset="0%"></stop>
            <stop stop-color="#FFFFFF" stop-opacity="0.75" offset="100%"></stop>
        </linearGradient>
        <linearGradient x1="50%" y1="0%" x2="50%" y2="100%" id="linearGradient-7">
            <stop stop-color="#FFFFFF" stop-opacity="0.7" offset="0%"></stop>
            <stop stop-color="#FFFFFF" stop-opacity="0.4" offset="100%"></stop>
        </linearGradient>
        <linearGradient x1="50%" y1="100%" x2="50%" y2="36.2885346%" id="linearGradient-8">
            <stop stop-color="#FFFFFF" stop-opacity="0.52" offset="0%"></stop>
            <stop stop-color="#FFFFFF" stop-opacity="0.78" offset="100%"></stop>
        </linearGradient>
    </defs>
    <g id="Page-1" stroke="none" stroke-width="1" fill="none" fill-rule="evenodd">
        <g id="Midday" transform="translate(0.000000, -929.000000)">
            <g id="Group-2" transform="translate(-158.000000, 927.000000)">
                <path d="M126.158977,208.842882 C84.0141597,147.369239 64.2945008,103.984849 67,78.689714 C81.2183455,130.21154 103.812525,140.262059 134.782538,108.841269 C165.75255,77.4204801 325.291089,67.3699617 613.398152,78.689714 C860.033961,67.3699617 1012.12206,60.8971799 1069.66244,59.2713688 C1127.20283,57.6455577 1233.64868,64.1183394 1389,78.689714 C1493.66667,86.3899098 1588.20918,97.8266718 1672.62753,113 C1757.04589,128.173328 1848.3242,202.630728 1946.46248,336.372199 L2222.42259,409.841269 L0,624.682539 C126.250802,408.929744 168.303794,270.316526 126.158977,208.842882 Z" id="Path-2" fill="url(#linearGradient-1)"></path>
                <path d="M316.744824,86.8645826 C317.142385,86.7464126 317.55993,86.602308 318,86.4178517 C316.077198,85.3803223 315.809635,85.2909717 314.154396,83.8412194 C314.954523,83.6884675 315.754651,83.4175456 316.509779,83.0082888 C314.74201,82.0485261 313.096756,80.881287 311.596485,79.5122528 C312.226589,79.3249117 312.854157,79.1260457 313.481777,78.9098852 C314.284401,78.8234194 315.094514,78.6504954 315.907187,78.3709262 C315.974699,78.3334594 316.17473,78.2931078 316.117217,78.2412313 C314.716994,77.1949955 313.419316,76.076748 312.231607,74.8950475 C312.564159,74.7797624 312.89424,74.6356578 313.216788,74.4598489 C311.914052,73.7508434 310.698883,72.9034809 309.576208,71.9178205 C309.041122,71.234757 308.538539,70.5401538 308.070945,69.8283003 C308.205968,69.8023657 308.340991,69.7706614 308.476008,69.7331872 C309.673702,69.8600046 310.918893,69.7447195 312.184118,69.2979886 C312.229123,69.2605218 312.38415,69.2345873 312.339144,69.1942356 C311.911575,68.8599124 311.494018,68.5140496 311.091458,68.1595837 C311.814069,68.0385361 312.526694,67.8108433 313.216788,67.4505782 C310.18629,65.7991046 307.65091,63.4185124 305.62582,60.2856338 C307.121034,60.7208325 309.086339,60.2856338 310.116518,59.6602091 C308.986355,58.9425563 307.948686,58.0693109 307.001015,57.0432178 C307.418579,56.9394648 307.841148,56.760771 308.261247,56.4956115 C306.383444,55.2736258 304.803225,53.5183402 303.538,51.2213435 C304.023075,51.5499044 304.655682,51.6709593 305.29828,51.6565422 C305.958353,51.685369 306.643518,51.5470195 307.341101,51.1665822 C307.431112,51.1204681 307.51613,51.074354 307.591137,51.0253551 C307.588641,51.0253551 307.588641,51.0224776 307.586138,51.0224776 C307.591137,51.0195927 307.596137,51.0167078 307.601142,51.0138303 C305.555825,49.6822776 303.900585,47.6705978 302.642849,44.9411619 C303.375446,45.209199 304.175573,45.1976742 304.998232,44.6846497 C304.420643,44.3013275 303.898025,43.8517191 303.407963,43.3012279 C303.410459,43.3012279 303.412962,43.3012279 303.415465,43.3041054 C303.425463,43.3069903 303.432965,43.3127528 303.442964,43.3156377 C304.133058,43.4568647 304.853172,43.3675141 305.610797,42.8919638 C305.483276,42.808383 305.358257,42.7219173 305.235735,42.6325741 C305.210733,42.6124019 305.185731,42.5922224 305.158226,42.5749278 C305.060712,42.5028792 304.965696,42.4279383 304.870679,42.3501199 C304.840677,42.3270629 304.813172,42.3011283 304.785667,42.2780713 C304.695656,42.2031378 304.605638,42.1253194 304.515621,42.0446161 C304.488116,42.0215591 304.463113,41.9956172 304.435608,41.9696826 C304.345597,41.8861018 304.258082,41.802521 304.170568,41.7131704 C304.148068,41.6901134 304.125562,41.6670563 304.103056,41.6439993 C304.010542,41.5488863 303.920525,41.4537806 303.833016,41.3529052 C303.818019,41.3356106 303.800512,41.3154385 303.785508,41.2981438 C303.690491,41.1886211 303.595474,41.0762209 303.502961,40.9609357 C303.495465,40.9522884 303.487963,40.9436411 303.482957,40.9349938 C302.755354,40.0242227 302.135223,38.9261178 301.620133,37.6378016 C301.705145,37.6752684 301.79266,37.7012103 301.877672,37.71562 C301.867673,37.6896855 301.867673,37.6781533 301.855172,37.6637435 C301.677646,37.1881932 301.52262,36.6895932 301.365097,36.1765836 C302.032723,36.649249 302.452758,36.6002574 303.287899,36.0728306 C303.177878,36.0007746 303.067864,35.9229636 302.962849,35.8422603 C302.947845,35.8307355 302.930345,35.8192033 302.915341,35.8047936 C302.812822,35.7240903 302.712806,35.6376319 302.615293,35.5482813 C302.600289,35.5367491 302.587788,35.5223394 302.575287,35.5108146 C302.477773,35.4185865 302.380254,35.3205959 302.28774,35.2197205 L302.285237,35.2168356 C302.195226,35.1188451 302.110208,35.0150847 302.025196,34.9084469 L301.965186,34.8306285 C301.887676,34.7297531 301.812663,34.6260001 301.740152,34.5193549 C301.71515,34.4818882 301.69265,34.4444214 301.667641,34.4069547 C301.612637,34.3262514 301.562626,34.239793 301.510119,34.1533273 C301.472615,34.0899187 301.435105,34.0236325 301.397602,33.9573463 C301.355099,33.8795279 301.31259,33.798832 301.27008,33.7181287 C301.23508,33.6489576 301.202569,33.5826714 301.167562,33.5135003 C301.140063,33.4529765 301.112558,33.3924527 301.085046,33.3319289 C301.027539,33.2051116 300.972529,33.0754167 300.920022,32.9399594 C300.905024,32.9053776 300.892523,32.8679035 300.877519,32.8333216 C300.805008,32.6431029 300.734994,32.4499994 300.672488,32.2482485 C300.292427,31.0636706 300.039888,29.6543511 299.924849,28 C299.849835,29.556368 299.567294,31.0723769 298.989724,32.4845739 C298.399627,33.8132491 297.244422,35.1966708 296.131797,36.2889469 C296.664381,36.5079924 297.186941,36.4935753 297.677067,36.3408234 C297.687066,36.3292986 297.699567,36.3033566 297.709572,36.2774221 C297.71957,36.2889469 297.71957,36.3148888 297.732078,36.3292986 C297.909603,36.2658899 298.087136,36.1880715 298.267164,36.0987283 C298.132141,36.4561085 297.999621,36.8163811 297.854599,37.1766167 C297.969619,37.1362651 298.117144,37.0757413 298.274666,36.9979229 C297.409505,39.0730556 296.149336,41.0242337 294.38656,42.7736905 C294.384057,42.7765754 294.381554,42.7794529 294.381554,42.7852227 C294.341548,42.8255669 294.304044,42.8630411 294.264038,42.9033927 C294.306547,42.92068 294.351552,42.9350897 294.394055,42.9523843 C294.396558,42.9523843 294.396558,42.9552692 294.399061,42.9552692 C294.414058,42.9610316 294.431565,42.966794 294.446563,42.9725638 C294.486569,42.9869735 294.529078,43.0013832 294.569085,43.015793 C294.621599,43.0330876 294.6741,43.0474973 294.724111,43.061907 C294.746617,43.0676694 294.76662,43.0734319 294.78912,43.0792016 C295.234189,43.1916019 295.679245,43.2117814 296.10933,43.1627825 C296.116832,43.1598976 296.126837,43.1570127 296.134339,43.1541351 C296.181847,43.1483727 296.229355,43.1426029 296.274361,43.1368405 C295.841793,43.6757995 295.37425,44.2003414 294.861656,44.6989635 C295.546757,44.9785328 296.211887,45.0044673 296.854485,44.8661252 C295.756838,46.9873719 294.319106,48.9904191 292.478813,50.832104 C292.413804,50.8983902 292.348795,50.9617988 292.28378,51.028085 C292.30628,51.0367323 292.328786,51.0453797 292.351292,51.054027 C292.383796,51.0655518 292.416301,51.0914937 292.451308,51.1174283 C293.228903,51.399875 294.006563,51.4748159 294.751706,51.3854653 C294.934237,51.3710556 295.14677,51.3335888 295.374307,51.2788275 C295.546834,51.2413607 295.716864,51.1952467 295.886888,51.1404853 C294.754228,53.0369168 293.351509,54.8439977 291.64122,56.5214501 C292.096294,56.7145536 292.563863,56.8154291 293.031458,56.8413636 C292.131346,57.827024 291.131123,58.7637665 290.018498,59.6744565 C290.028497,59.6773414 290.035999,59.6802263 290.046003,59.6831038 C290.043501,59.6859887 290.040998,59.6859887 290.040998,59.6888736 C289.995992,59.7148081 290.131015,59.7407501 290.173518,59.766692 C291.196209,60.1384894 292.218836,60.2278326 293.209009,60.1240796 C293.359036,60.0866055 293.504058,60.0491461 293.646576,60.0087945 L293.654078,60.0087945 C292.231324,62.8418948 290.341039,65.7096728 287.185849,67.4645157 C288.028479,67.7613722 288.781111,67.9227714 289.52875,67.9775328 C288.978659,68.4213787 288.411068,68.8335573 287.820958,69.2082248 C288.633567,69.6981848 289.913771,70.0930245 291.209017,70.1679875 C289.883814,71.66378 288.39609,73.1048997 286.698284,74.485444 C287.080847,74.6237862 288.001019,74.7217767 288.483592,74.8053575 C287.118382,76.1397878 285.64314,77.2868842 284.052871,78.252402 C285.038051,78.8288277 286.210718,79.2986377 287.373399,79.4369799 C286.15823,80.679182 284.848005,81.8752701 283.420258,83.0425091 C283.942844,83.221203 284.475402,83.3624227 284.997981,83.466183 C284.462894,84.0166668 283.897774,84.5556553 283.32021,85.0945627 C283.737774,85.2674867 284.177819,85.3625997 284.630435,85.4058289 C283.787804,86.0571881 282.910161,86.653786 282,87.1956447 C284.122834,87.7864801 286.03565,88.181305 288.746033,86.0946623 C288.956064,87.4002435 289.113593,88.2476355 288.778538,89.1554524 C290.293787,88.9162377 291.063893,88.169795 291.90653,86.8497523 C292.151567,86.7085252 292.399107,86.5673056 292.644119,86.4260785 C292.846654,87.6336766 292.804145,89.4234894 292.624116,90.4120273 C293.519228,90.7088838 295.492092,89.437877 296.974818,88.0688457 C297.86744,87.9449133 298.835082,87.5183619 299.682775,87.0485814 C301.127997,88.8268871 303.913458,90.7694297 305.828771,91 C305.496219,90.4264591 305.298689,89.5560766 305.17369,88.6539409 C305.44373,88.7749885 305.65627,88.818225 305.773786,88.7317593 C305.713776,88.0717528 305.756285,87.3223661 305.858798,86.6393615 C307.023975,87.6942299 308.714228,89.1122527 309.951929,89.3485788 C309.536861,88.576152 309.509356,86.8007976 309.726895,85.9534057 C310.256976,86.1724511 310.782039,86.4001366 311.324653,86.6047649 C313.197463,87.8181181 315.495301,87.806608 316.943019,87.3108855 C317.020529,87.2734114 317.243067,87.2330671 317.175555,87.1811907 C317.030534,87.0803152 316.888009,86.9736774 316.745484,86.8641547 L316.744824,86.8645826 Z" id="Fill-1" fill="url(#linearGradient-2)"></path>
                <path d="M385.163216,87.7835642 C385.428257,87.6916542 385.70662,87.5795729 386,87.4361069 C384.718132,86.6291395 384.539757,86.5596446 383.436264,85.4320595 C383.969682,85.3132525 384.5031,85.1025354 385.006519,84.7842246 C383.828006,84.0377425 382.731171,83.1298899 381.73099,82.0650855 C382.151059,81.9193758 382.569438,81.7647022 382.987851,81.5965773 C383.522934,81.5293262 384.063009,81.3948298 384.604791,81.177387 C384.649799,81.1482462 384.783154,81.1168616 384.744811,81.0765132 C383.81133,80.2627743 382.946211,79.3930262 382.154405,78.4739259 C382.376106,78.3842596 382.59616,78.2721783 382.811192,78.135438 C381.942702,77.5839893 381.132589,76.9249296 380.384139,76.1583049 C380.027414,75.6270332 379.69236,75.0867863 379.38063,74.5331224 C379.470645,74.5129511 379.560661,74.4882922 379.650672,74.4591456 C380.449135,74.5577814 381.279262,74.4681151 382.122745,74.1206578 C382.152749,74.091517 382.2561,74.0713457 382.226096,74.039961 C381.94105,73.7799319 381.662678,73.5109274 381.394305,73.2352318 C381.876046,73.1410837 382.351129,72.9639893 382.811192,72.683783 C380.79086,71.3993036 379.100607,69.5477318 377.750547,67.1110485 C378.747356,67.4495364 380.057559,67.1110485 380.744346,66.6246071 C379.990903,66.0664327 379.299124,65.3872418 378.667343,64.5891694 C378.945719,64.5084726 379.227432,64.3694885 379.507498,64.1632534 C378.25563,63.21282 377.20215,61.8475979 376.358666,60.061045 C376.68205,60.3165923 377.103788,60.4107461 377.532187,60.3995328 C377.972235,60.4219537 378.429012,60.3143485 378.894067,60.0184528 C378.954075,59.9825863 379.010754,59.9467198 379.060758,59.9086095 C379.059094,59.9086095 379.059094,59.9063714 379.057425,59.9063714 C379.060758,59.9041276 379.064091,59.9018838 379.067428,59.8996458 C377.703883,58.8639937 376.60039,57.2993539 375.7619,55.1764593 C376.250297,55.3849326 376.783715,55.3759688 377.332155,54.9769498 C376.947095,54.6788103 376.598683,54.3291149 376.271975,53.9009551 C376.27364,53.9009551 376.275308,53.9009551 376.276977,53.9031931 C376.283642,53.9054369 376.288644,53.9099188 376.295309,53.9121626 C376.755372,54.0220059 377.235448,53.952511 377.740531,53.5826385 C377.655517,53.5176312 377.572172,53.4503801 377.49049,53.3808909 C377.473822,53.3652015 377.457154,53.3495063 377.438817,53.336055 C377.373808,53.2800171 377.310464,53.2217298 377.247119,53.1612044 C377.227118,53.1432711 377.208781,53.1230998 377.190445,53.1051666 C377.130437,53.046885 377.070426,52.9863595 377.010414,52.9235903 C376.992077,52.9056571 376.975409,52.88548 376.957072,52.8653087 C376.897065,52.8003014 376.838722,52.7352941 376.780378,52.6657992 C376.765379,52.6478659 376.750375,52.6299327 376.735371,52.6119995 C376.673695,52.5380227 376.613683,52.4640516 376.555344,52.3855929 C376.545346,52.3721416 376.533675,52.3564521 376.523672,52.3430008 C376.460327,52.2578164 376.396983,52.170394 376.335307,52.0807278 C376.33031,52.0740021 376.325309,52.0672764 376.321972,52.0605507 C375.836902,51.3521732 375.423482,50.4980916 375.080089,49.4960679 C375.136763,49.5252087 375.195106,49.5453858 375.251781,49.5565933 C375.245115,49.536422 375.245115,49.5274525 375.236781,49.516245 C375.118431,49.1463725 375.01508,48.7585725 374.910065,48.359565 C375.355149,48.7271936 375.635172,48.6890891 376.191933,48.2788683 C376.118586,48.2228247 376.045243,48.162305 375.975233,48.0995358 C375.96523,48.090572 375.953563,48.0816026 375.94356,48.070395 C375.875215,48.0076258 375.808537,47.9403804 375.743529,47.8708855 C375.733526,47.861916 375.725192,47.8507084 375.716858,47.8417447 C375.651849,47.7700117 375.586836,47.6937968 375.52516,47.6153382 L375.523491,47.6130944 C375.463484,47.5368795 375.406805,47.456177 375.350131,47.3732365 L375.310124,47.3127111 C375.258451,47.2342524 375.208442,47.1535557 375.160101,47.0706094 C375.143433,47.0414686 375.128433,47.0123278 375.111761,46.983187 C375.075092,46.9204177 375.041751,46.8531724 375.006746,46.7859213 C374.981743,46.7366034 374.956737,46.6850475 374.931734,46.6334915 C374.903399,46.5729661 374.87506,46.5102026 374.84672,46.4474334 C374.823386,46.3936337 374.801713,46.3420777 374.778375,46.288278 C374.760042,46.2412039 374.741705,46.1941299 374.723364,46.1470558 C374.685026,46.0484201 374.648353,45.9475463 374.613348,45.8421907 C374.603349,45.8152937 374.595015,45.7861471 374.585013,45.7592501 C374.536672,45.6113023 374.489996,45.4611106 374.448325,45.3041933 C374.194952,44.3828549 374.026592,43.2867175 373.949899,42 C373.89989,43.2105084 373.71153,44.3896265 373.326483,45.4880019 C372.933085,46.5214159 372.162948,47.5974107 371.421198,48.4469587 C371.776254,48.6173274 372.124627,48.6061141 372.451378,48.4873071 C372.458044,48.4783433 372.466378,48.4581663 372.473048,48.437995 C372.479713,48.4469587 372.479713,48.4671358 372.488052,48.4783433 C372.606402,48.4290255 372.724757,48.3685 372.844776,48.2990109 C372.754761,48.5769733 372.666414,48.8571853 372.569733,49.1373686 C372.646413,49.105984 372.744762,49.0589099 372.849778,48.9983845 C372.273003,50.6123766 371.432891,52.1299596 370.257706,53.4906481 C370.256038,53.4928919 370.254369,53.49513 370.254369,53.4996176 C370.227698,53.5309965 370.202696,53.5601431 370.176025,53.5915277 C370.204365,53.6049733 370.234368,53.6161809 370.262703,53.6296322 C370.264372,53.6296322 370.264372,53.631876 370.266041,53.631876 C370.276039,53.6363579 370.28771,53.6408398 370.297709,53.6453274 C370.324379,53.656535 370.352719,53.6677425 370.37939,53.6789501 C370.414399,53.6924015 370.4494,53.703609 370.482741,53.7148166 C370.497745,53.7192985 370.51108,53.7237803 370.52608,53.7282679 C370.822793,53.8156904 371.119497,53.8313855 371.40622,53.7932752 C371.411221,53.7910314 371.417891,53.7887876 371.422892,53.7865496 C371.454565,53.7820677 371.486237,53.7775801 371.516241,53.7730982 C371.227862,54.1922885 370.916166,54.6002656 370.574437,54.9880827 C371.031171,55.2055255 371.474591,55.2256968 371.90299,55.1180973 C371.171226,56.7679559 370.212737,58.3258815 368.985875,59.7583031 C368.942536,59.809859 368.899197,59.8591769 368.855854,59.9107328 C368.870853,59.9174585 368.885857,59.9241842 368.900861,59.9309099 C368.922531,59.9398736 368.9442,59.9600507 368.967538,59.980222 C369.485936,60.1999028 370.004375,60.2581902 370.501137,60.1886952 C370.622825,60.1774877 370.764513,60.1483469 370.916205,60.1057547 C371.031223,60.0766139 371.144576,60.0407474 371.257925,59.9981552 C370.502818,61.4731575 369.567672,62.8786648 368.42748,64.1833501 C368.730863,64.3335417 369.042575,64.4120004 369.354305,64.4321717 C368.754231,65.1987964 368.087416,65.927374 367.345665,66.6356884 C367.352331,66.6379322 367.357332,66.640176 367.364002,66.6424141 C367.362334,66.6446579 367.360665,66.6446579 367.360665,66.6469017 C367.330662,66.667073 367.420677,66.6872501 367.449012,66.7074271 C368.130806,66.9966028 368.812557,67.066092 369.472673,66.9853953 C369.572691,66.9562487 369.669372,66.9271137 369.764384,66.8957291 L369.769386,66.8957291 C368.820883,69.0992515 367.560693,71.3297455 365.457233,72.6946233 C366.018986,72.9255117 366.520741,73.0510444 367.019167,73.0936366 C366.652439,73.4388501 366.274045,73.7594334 365.880639,74.0508415 C366.422378,74.4319215 367.275847,74.739019 368.139345,74.7973236 C367.255876,75.9607178 366.26406,77.0815887 365.132189,78.1553453 C365.387231,78.2629448 366.000679,78.3391597 366.322394,78.404167 C365.412255,79.4420571 364.42876,80.3342433 363.36858,81.0852015 C364.025368,81.5335327 364.807145,81.8989405 365.582266,82.0065399 C364.772153,82.9726971 363.89867,83.9029878 362.946839,84.8108404 C363.295229,84.9498245 363.650268,85.0596621 363.998654,85.1403645 C363.64193,85.5685186 363.265183,85.9877319 362.88014,86.4068821 C363.158516,86.5413785 363.451879,86.6153553 363.753623,86.648978 C363.19187,87.1555908 362.606774,87.6196113 362,88.041057 C363.415223,88.5005957 364.690433,88.8076817 366.497356,87.1847373 C366.637376,88.2001894 366.742395,88.859272 366.519025,89.5653518 C367.529191,89.379296 368.042596,88.7987294 368.604353,87.7720296 C368.767711,87.6621863 368.932738,87.5523488 369.096079,87.4425055 C369.231103,88.3817485 369.202763,89.7738251 369.082744,90.5426879 C369.679485,90.7735763 370.994728,89.7850154 371.983212,88.7202134 C372.578293,88.6238214 373.223388,88.2920593 373.788517,87.9266744 C374.751998,89.3098011 376.608972,90.8206675 377.885847,91 C377.664146,90.5539127 377.53246,89.8769484 377.449127,89.1752874 C377.629153,89.2694355 377.770846,89.3030639 377.849191,89.2358128 C377.809184,88.7224744 377.837524,88.1396181 377.905865,87.6083923 C378.68265,88.4288455 379.809485,89.5317521 380.634619,89.7155613 C380.357908,89.1147849 380.339571,87.7339537 380.484597,87.0748711 C380.837984,87.2452398 381.188026,87.4223284 381.549769,87.5814838 C382.798309,88.5252029 384.3302,88.5162507 385.295346,88.1306888 C385.347019,88.1015422 385.495378,88.0701633 385.45037,88.029815 C385.353689,87.9513563 385.258672,87.8684158 385.163656,87.7832314 L385.163216,87.7835642 Z" id="Fill-1" fill="url(#linearGradient-3)"></path>
                <path d="M605.744824,79.7835642 C606.142385,79.6916542 606.55993,79.5795729 607,79.4361069 C605.077198,78.6291395 604.809635,78.5596446 603.154396,77.4320595 C603.954523,77.3132525 604.754651,77.1025354 605.509779,76.7842246 C603.74201,76.0377425 602.096756,75.1298899 600.596485,74.0650855 C601.226589,73.9193758 601.854157,73.7647022 602.481777,73.5965773 C603.284401,73.5293262 604.094514,73.3948298 604.907187,73.177387 C604.974699,73.1482462 605.17473,73.1168616 605.117217,73.0765132 C603.716994,72.2627743 602.419316,71.3930262 601.231607,70.4739259 C601.564159,70.3842596 601.89424,70.2721783 602.216788,70.135438 C600.914052,69.5839893 599.698883,68.9249296 598.576208,68.1583049 C598.041122,67.6270332 597.538539,67.0867863 597.070945,66.5331224 C597.205968,66.5129511 597.340991,66.4882922 597.476008,66.4591456 C598.673702,66.5577814 599.918893,66.4681151 601.184118,66.1206578 C601.229123,66.091517 601.38415,66.0713457 601.339144,66.039961 C600.911575,65.7799319 600.494018,65.5109274 600.091458,65.2352318 C600.814069,65.1410837 601.526694,64.9639893 602.216788,64.683783 C599.18629,63.3993036 596.65091,61.5477318 594.62582,59.1110485 C596.121034,59.4495364 598.086339,59.1110485 599.116518,58.6246071 C597.986355,58.0664327 596.948686,57.3872418 596.001015,56.5891694 C596.418579,56.5084726 596.841148,56.3694885 597.261247,56.1632534 C595.383444,55.21282 593.803225,53.8475979 592.538,52.061045 C593.023075,52.3165923 593.655682,52.4107461 594.29828,52.3995328 C594.958353,52.4219537 595.643518,52.3143485 596.341101,52.0184528 C596.431112,51.9825863 596.51613,51.9467198 596.591137,51.9086095 C596.588641,51.9086095 596.588641,51.9063714 596.586138,51.9063714 C596.591137,51.9041276 596.596137,51.9018838 596.601142,51.8996458 C594.555825,50.8639937 592.900585,49.2993539 591.642849,47.1764593 C592.375446,47.3849326 593.175573,47.3759688 593.998232,46.9769498 C593.420643,46.6788103 592.898025,46.3291149 592.407963,45.9009551 C592.410459,45.9009551 592.412962,45.9009551 592.415465,45.9031931 C592.425463,45.9054369 592.432965,45.9099188 592.442964,45.9121626 C593.133058,46.0220059 593.853172,45.952511 594.610797,45.5826385 C594.483276,45.5176312 594.358257,45.4503801 594.235735,45.3808909 C594.210733,45.3652015 594.185731,45.3495063 594.158226,45.336055 C594.060712,45.2800171 593.965696,45.2217298 593.870679,45.1612044 C593.840677,45.1432711 593.813172,45.1230998 593.785667,45.1051666 C593.695656,45.046885 593.605638,44.9863595 593.515621,44.9235903 C593.488116,44.9056571 593.463113,44.88548 593.435608,44.8653087 C593.345597,44.8003014 593.258082,44.7352941 593.170568,44.6657992 C593.148068,44.6478659 593.125562,44.6299327 593.103056,44.6119995 C593.010542,44.5380227 592.920525,44.4640516 592.833016,44.3855929 C592.818019,44.3721416 592.800512,44.3564521 592.785508,44.3430008 C592.690491,44.2578164 592.595474,44.170394 592.502961,44.0807278 C592.495465,44.0740021 592.487963,44.0672764 592.482957,44.0605507 C591.755354,43.3521732 591.135223,42.4980916 590.620133,41.4960679 C590.705145,41.5252087 590.79266,41.5453858 590.877672,41.5565933 C590.867673,41.536422 590.867673,41.5274525 590.855172,41.516245 C590.677646,41.1463725 590.52262,40.7585725 590.365097,40.359565 C591.032723,40.7271936 591.452758,40.6890891 592.287899,40.2788683 C592.177878,40.2228247 592.067864,40.162305 591.962849,40.0995358 C591.947845,40.090572 591.930345,40.0816026 591.915341,40.070395 C591.812822,40.0076258 591.712806,39.9403804 591.615293,39.8708855 C591.600289,39.861916 591.587788,39.8507084 591.575287,39.8417447 C591.477773,39.7700117 591.380254,39.6937968 591.28774,39.6153382 L591.285237,39.6130944 C591.195226,39.5368795 591.110208,39.456177 591.025196,39.3732365 L590.965186,39.3127111 C590.887676,39.2342524 590.812663,39.1535557 590.740152,39.0706094 C590.71515,39.0414686 590.69265,39.0123278 590.667641,38.983187 C590.612637,38.9204177 590.562626,38.8531724 590.510119,38.7859213 C590.472615,38.7366034 590.435105,38.6850475 590.397602,38.6334915 C590.355099,38.5729661 590.31259,38.5102026 590.27008,38.4474334 C590.23508,38.3936337 590.202569,38.3420777 590.167562,38.288278 C590.140063,38.2412039 590.112558,38.1941299 590.085046,38.1470558 C590.027539,38.0484201 589.972529,37.9475463 589.920022,37.8421907 C589.905024,37.8152937 589.892523,37.7861471 589.877519,37.7592501 C589.805008,37.6113023 589.734994,37.4611106 589.672488,37.3041933 C589.292427,36.3828549 589.039888,35.2867175 588.924849,34 C588.849835,35.2105084 588.567294,36.3896265 587.989724,37.4880019 C587.399627,38.5214159 586.244422,39.5974107 585.131797,40.4469587 C585.664381,40.6173274 586.186941,40.6061141 586.677067,40.4873071 C586.687066,40.4783433 586.699567,40.4581663 586.709572,40.437995 C586.71957,40.4469587 586.71957,40.4671358 586.732078,40.4783433 C586.909603,40.4290255 587.087136,40.3685 587.267164,40.2990109 C587.132141,40.5769733 586.999621,40.8571853 586.854599,41.1373686 C586.969619,41.105984 587.117144,41.0589099 587.274666,40.9983845 C586.409505,42.6123766 585.149336,44.1299596 583.38656,45.4906481 C583.384057,45.4928919 583.381554,45.49513 583.381554,45.4996176 C583.341548,45.5309965 583.304044,45.5601431 583.264038,45.5915277 C583.306547,45.6049733 583.351552,45.6161809 583.394055,45.6296322 C583.396558,45.6296322 583.396558,45.631876 583.399061,45.631876 C583.414058,45.6363579 583.431565,45.6408398 583.446563,45.6453274 C583.486569,45.656535 583.529078,45.6677425 583.569085,45.6789501 C583.621599,45.6924015 583.6741,45.703609 583.724111,45.7148166 C583.746617,45.7192985 583.76662,45.7237803 583.78912,45.7282679 C584.234189,45.8156904 584.679245,45.8313855 585.10933,45.7932752 C585.116832,45.7910314 585.126837,45.7887876 585.134339,45.7865496 C585.181847,45.7820677 585.229355,45.7775801 585.274361,45.7730982 C584.841793,46.1922885 584.37425,46.6002656 583.861656,46.9880827 C584.546757,47.2055255 585.211887,47.2256968 585.854485,47.1180973 C584.756838,48.7679559 583.319106,50.3258815 581.478813,51.7583031 C581.413804,51.809859 581.348795,51.8591769 581.28378,51.9107328 C581.30628,51.9174585 581.328786,51.9241842 581.351292,51.9309099 C581.383796,51.9398736 581.416301,51.9600507 581.451308,51.980222 C582.228903,52.1999028 583.006563,52.2581902 583.751706,52.1886952 C583.934237,52.1774877 584.14677,52.1483469 584.374307,52.1057547 C584.546834,52.0766139 584.716864,52.0407474 584.886888,51.9981552 C583.754228,53.4731575 582.351509,54.8786648 580.64122,56.1833501 C581.096294,56.3335417 581.563863,56.4120004 582.031458,56.4321717 C581.131346,57.1987964 580.131123,57.927374 579.018498,58.6356884 C579.028497,58.6379322 579.035999,58.640176 579.046003,58.6424141 C579.043501,58.6446579 579.040998,58.6446579 579.040998,58.6469017 C578.995992,58.667073 579.131015,58.6872501 579.173518,58.7074271 C580.196209,58.9966028 581.218836,59.066092 582.209009,58.9853953 C582.359036,58.9562487 582.504058,58.9271137 582.646576,58.8957291 L582.654078,58.8957291 C581.231324,61.0992515 579.341039,63.3297455 576.185849,64.6946233 C577.028479,64.9255117 577.781111,65.0510444 578.52875,65.0936366 C577.978659,65.4388501 577.411068,65.7594334 576.820958,66.0508415 C577.633567,66.4319215 578.913771,66.739019 580.209017,66.7973236 C578.883814,67.9607178 577.39609,69.0815887 575.698284,70.1553453 C576.080847,70.2629448 577.001019,70.3391597 577.483592,70.404167 C576.118382,71.4420571 574.64314,72.3342433 573.052871,73.0852015 C574.038051,73.5335327 575.210718,73.8989405 576.373399,74.0065399 C575.15823,74.9726971 573.848005,75.9029878 572.420258,76.8108404 C572.942844,76.9498245 573.475402,77.0596621 573.997981,77.1403645 C573.462894,77.5685186 572.897774,77.9877319 572.32021,78.4068821 C572.737774,78.5413785 573.177819,78.6153553 573.630435,78.648978 C572.787804,79.1555908 571.910161,79.6196113 571,80.041057 C573.122834,80.5005957 575.03565,80.8076817 577.746033,79.1847373 C577.956064,80.2001894 578.113593,80.859272 577.778538,81.5653518 C579.293787,81.379296 580.063893,80.7987294 580.90653,79.7720296 C581.151567,79.6621863 581.399107,79.5523488 581.644119,79.4425055 C581.846654,80.3817485 581.804145,81.7738251 581.624116,82.5426879 C582.519228,82.7735763 584.492092,81.7850154 585.974818,80.7202134 C586.86744,80.6238214 587.835082,80.2920593 588.682775,79.9266744 C590.127997,81.3098011 592.913458,82.8206675 594.828771,83 C594.496219,82.5539127 594.298689,81.8769484 594.17369,81.1752874 C594.44373,81.2694355 594.65627,81.3030639 594.773786,81.2358128 C594.713776,80.7224744 594.756285,80.1396181 594.858798,79.6083923 C596.023975,80.4288455 597.714228,81.5317521 598.951929,81.7155613 C598.536861,81.1147849 598.509356,79.7339537 598.726895,79.0748711 C599.256976,79.2452398 599.782039,79.4223284 600.324653,79.5814838 C602.197463,80.5252029 604.495301,80.5162507 605.943019,80.1306888 C606.020529,80.1015422 606.243067,80.0701633 606.175555,80.029815 C606.030534,79.9513563 605.888009,79.8684158 605.745484,79.7832314 L605.744824,79.7835642 Z" id="Fill-1" fill="url(#linearGradient-4)"></path>
                <path d="M978.306855,34.6991794 L943.351944,34.6991794 L943.351944,31.6686003 L946.037345,31.6686003 L934.970223,2 L923,31.6714011 L926.080163,31.6714011 L926.080163,65 L932.23771,65 L932.23771,58.9415718 L935.253965,55.9137235 L938.395331,58.9415718 L938.395331,65 L987,65 L987,48.1977588 L978.306855,34.6991794 Z M938,47 L932,47 L932,41 L938,41 L938,47 Z" id="Fill-1" fill="url(#linearGradient-5)" transform="translate(955.000000, 33.500000) rotate(-2.000000) translate(-955.000000, -33.500000) "></path>
                <path d="M417.407278,80.3086966 C417.595015,80.2317923 417.792189,80.1380099 418,80.017967 C417.09201,79.3427494 416.965661,79.2846006 416.18402,78.341111 C416.561858,78.2417011 416.939696,78.0653868 417.296284,77.7990451 C416.461505,77.1744376 415.684579,76.4148058 414.976118,75.5238471 C415.273667,75.4019267 415.570019,75.272506 415.866395,75.13183 C416.245411,75.0755587 416.627965,74.9630208 417.011727,74.7810789 C417.043608,74.7566958 417.138067,74.7304352 417.110908,74.6966743 C416.449692,74.0157907 415.836899,73.2880423 415.276037,72.5189992 C415.433075,72.4439723 415.588947,72.35019 415.741261,72.2357747 C415.12608,71.7743584 414.55225,71.2229003 414.022098,70.5814388 C413.769419,70.1369053 413.532088,69.684862 413.31128,69.2215922 C413.37504,69.2047142 413.438801,69.1840812 413.502559,69.1596933 C414.068137,69.2422252 414.656144,69.1671984 415.253611,68.8764688 C415.274864,68.8520856 415.348071,68.8352076 415.326818,68.808947 C415.124911,68.5913716 414.927731,68.3662862 414.737633,68.1356021 C415.078866,68.0568251 415.415383,67.9086441 415.741261,67.6741858 C414.310192,66.5994173 413.11293,65.050143 412.156637,63.0112855 C412.86271,63.29451 413.790771,63.0112855 414.277245,62.6042631 C413.743556,62.1372192 413.253546,61.5689166 412.806035,60.9011417 C413.003218,60.83362 413.202765,60.7173271 413.401145,60.544763 C412.514404,59.7495025 411.76819,58.6071738 411.170722,57.1123029 C411.399786,57.3261282 411.698516,57.40491 412.001965,57.3955275 C412.313667,57.4142878 412.637217,57.3242508 412.966631,57.0766646 C413.009136,57.0466538 413.049284,57.0166431 413.084704,56.9847549 C413.083525,56.9847549 413.083525,56.9828822 413.082343,56.9828822 C413.084704,56.9810048 413.087065,56.9791273 413.089428,56.9772546 C412.123584,56.1106886 411.341943,54.8015002 410.748012,53.0252006 C411.093961,53.1996374 411.471798,53.1921372 411.860276,52.8582641 C411.587526,52.6088005 411.340734,52.3161982 411.109316,51.957942 C411.110495,51.957942 411.111677,51.957942 411.112858,51.9598147 C411.11758,51.9616921 411.121123,51.9654423 411.125844,51.9673197 C411.451722,52.0592294 411.791776,52.0010806 412.149543,51.6915955 C412.089325,51.6372016 412.030288,51.5809303 411.972431,51.5227863 C411.960624,51.5096584 411.948817,51.4965257 411.935829,51.4852705 C411.889781,51.4383817 411.844912,51.3896106 411.800043,51.3389669 C411.785875,51.3239616 411.772887,51.3070835 411.759898,51.2920782 C411.717393,51.2433119 411.674885,51.1926682 411.632377,51.140147 C411.619388,51.1251416 411.607581,51.1082588 411.594593,51.0913807 C411.552087,51.0369869 411.510761,50.982593 411.469435,50.9244442 C411.45881,50.9094388 411.448182,50.8944335 411.437554,50.8794281 C411.393867,50.8175292 411.351359,50.755635 411.310035,50.6899859 C411.302953,50.6787307 411.294686,50.6656028 411.287601,50.6543476 C411.242732,50.5830709 411.197863,50.5099215 411.154176,50.4348947 C411.150636,50.4292671 411.147094,50.4236394 411.14473,50.4180118 C410.801139,49.8252878 410.5083,49.1106481 410.265063,48.2722201 C410.305207,48.2966032 410.346534,48.3134861 410.386678,48.3228638 C410.381957,48.3059858 410.381957,48.2984807 410.376053,48.2891029 C410.292222,47.9796178 410.219015,47.6551321 410.144629,47.3212687 C410.459897,47.6288763 410.658247,47.5969929 411.052619,47.2537469 C411.000665,47.2068533 410.948714,47.1562144 410.899123,47.1036932 C410.892038,47.0961929 410.883774,47.0886878 410.876689,47.0793101 C410.828277,47.0267889 410.781047,46.9705224 410.734999,46.9123736 C410.727914,46.9048685 410.722011,46.8954907 410.716108,46.8879904 C410.67006,46.827969 410.624009,46.7641974 410.580322,46.6985483 L410.57914,46.6966708 C410.536635,46.6328992 410.496487,46.5653726 410.456342,46.4959734 L410.428005,46.4453297 C410.391403,46.3796806 410.35598,46.3121588 410.321738,46.2427548 C410.309932,46.2183717 410.299307,46.1939885 410.287497,46.1696054 C410.261523,46.1170842 410.237907,46.0608177 410.213112,46.0045464 C410.195402,45.9632804 410.177689,45.9201418 410.159979,45.8770031 C410.139908,45.8263594 410.119834,45.773843 410.09976,45.7213218 C410.083232,45.6763057 410.06788,45.6331671 410.051349,45.588151 C410.038363,45.5487625 410.025375,45.509374 410.012383,45.4699855 C409.985227,45.3874536 409.95925,45.303049 409.934455,45.2148942 C409.927372,45.1923886 409.921469,45.1680007 409.914384,45.145495 C409.880143,45.0217019 409.84708,44.8960314 409.817564,44.7647332 C409.638091,43.9938174 409.518836,43.0766412 409.464512,42 C409.429089,43.0128744 409.295667,43.9994834 409.022925,44.9185322 C408.744268,45.7832256 408.198755,46.6835477 407.673349,47.394394 C407.924847,47.5369474 408.171611,47.5275649 408.40306,47.4281549 C408.407781,47.4206546 408.413684,47.4037718 408.418409,47.3868937 C408.42313,47.394394 408.42313,47.4112769 408.429037,47.4206546 C408.512868,47.3793887 408.596703,47.3287449 408.681716,47.2706009 C408.617956,47.5031817 408.555377,47.7376448 408.486894,47.9720839 C408.541209,47.9458233 408.610873,47.9064348 408.685259,47.8557911 C408.276711,49.2062743 407.681631,50.4760886 406.849209,51.614624 C406.848027,51.6165014 406.846845,51.6183741 406.846845,51.622129 C406.827953,51.6483848 406.810243,51.6727728 406.791351,51.6990334 C406.811425,51.7102838 406.832678,51.7196615 406.852748,51.7309168 C406.85393,51.7309168 406.85393,51.7327942 406.855112,51.7327942 C406.862194,51.7365444 406.870461,51.7402945 406.877544,51.7440495 C406.896435,51.7534272 406.916509,51.762805 406.935401,51.7721827 C406.960199,51.783438 406.984992,51.7928157 407.008608,51.8021935 C407.019236,51.8059436 407.028682,51.8096937 407.039307,51.8134487 C407.249478,51.8865981 407.459644,51.8997308 407.662739,51.8678426 C407.666282,51.8659651 407.671006,51.8640876 407.674549,51.8622149 C407.696983,51.8584648 407.719418,51.8547099 407.74067,51.8509597 C407.536402,52.2017108 407.315618,52.5430793 407.07356,52.8675794 C407.39708,53.0495213 407.711169,53.0663994 408.014618,52.9763672 C407.496285,54.3568611 406.817355,55.6604315 405.948328,56.8589883 C405.91763,56.9021269 405.886931,56.9433929 405.85623,56.9865315 C405.866854,56.9921591 405.877482,56.9977868 405.88811,57.0034144 C405.903459,57.0109147 405.918809,57.0277975 405.93534,57.0446755 C406.302538,57.2284901 406.669766,57.2772612 407.021639,57.2191123 C407.107834,57.2097346 407.208197,57.1853515 407.315645,57.1497131 C407.397116,57.12533 407.477408,57.0953193 407.557697,57.0596809 C407.02283,58.2938665 406.360435,59.4699032 405.552799,60.5615786 C405.767695,60.6872492 405.988491,60.7528983 406.209299,60.7697763 C405.784247,61.4112378 405.311919,62.0208639 404.786513,62.6135352 C404.791235,62.6154127 404.794777,62.6172901 404.799502,62.6191628 C404.79832,62.6210403 404.797138,62.6210403 404.797138,62.6229177 C404.775885,62.6397958 404.839646,62.6566786 404.859717,62.6735615 C405.342654,62.9155248 405.825561,62.9736688 406.293143,62.9061471 C406.363989,62.8817591 406.432472,62.8573808 406.499772,62.8311202 L406.503315,62.8311202 C405.831459,64.6748839 404.938824,66.5412156 403.448873,67.6832562 C403.846782,67.8764486 404.202191,67.9814861 404.555243,68.0171245 C404.295478,68.3059766 404.027449,68.5742198 403.748786,68.8180511 C404.132518,69.1369139 404.737059,69.3938731 405.348703,69.4426585 C404.722912,70.4161108 404.020376,71.3539824 403.218634,72.2524318 C403.399289,72.342464 403.833814,72.4062356 404.061696,72.4606295 C403.417014,73.3290682 402.720372,74.0755913 401.969411,74.7039441 C402.434635,75.0790783 402.988395,75.3848277 403.537438,75.4748599 C402.963608,76.2832772 402.344891,77.0616837 401.670677,77.8213155 C401.917454,77.9376083 402.16894,78.0295132 402.415713,78.0970397 C402.163033,78.4552911 401.896171,78.8060614 401.623433,79.1567789 C401.820616,79.2693167 402.028414,79.3312157 402.24215,79.359349 C401.844241,79.7832494 401.429798,80.1715115 401,80.5241497 C402.002449,80.9086617 402.905724,81.1656112 404.185627,79.8076373 C404.284808,80.6573013 404.359197,81.2087787 404.200976,81.7995801 C404.91651,81.6439007 405.280172,81.1581205 405.678084,80.2990452 C405.793796,80.2071355 405.91069,80.1152306 406.02639,80.0233209 C406.122031,80.8092181 406.101957,81.9740169 406.016944,82.6173511 C406.439635,82.8105434 407.371266,81.9833803 408.071442,81.0924234 C408.492958,81.011769 408.9499,80.734172 409.350199,80.4284419 C410.032665,81.5857519 411.348022,82.8499463 412.252475,83 C412.095437,82.6267433 412.002159,82.0603038 411.943132,81.4731997 C412.07065,81.5519766 412.171016,81.5801147 412.22651,81.5238434 C412.198172,81.0943153 412.218246,80.6066192 412.266655,80.1621242 C412.816877,80.8486258 413.615052,81.7714661 414.199522,81.9252656 C414.003518,81.4225751 413.990529,80.2671858 414.093256,79.7157085 C414.343572,79.8582619 414.591518,80.0064381 414.847753,80.1396089 C415.732135,80.9292514 416.817225,80.9217608 417.50087,80.5991477 C417.537472,80.5747598 417.642559,80.548504 417.610679,80.5147431 C417.542196,80.449094 417.474893,80.3796948 417.407589,80.3084181 L417.407278,80.3086966 Z" id="Fill-1" fill="url(#linearGradient-6)"></path>
                <path d="M450.36385,57.3939038 C449.419645,60.8244826 450.36385,64.8771949 452.60828,67.0597026 C454.852709,69.3981717 457.923152,69.3981717 460.285558,67.3717442 C461.584377,69.7102132 463.355965,70.6463141 465.718587,70.1782399 L465.718587,80 L469.971133,80 L469.971133,70.3342012 C471.388145,70.6462427 472.923348,70.1781828 474.576708,68.6198153 C477.292538,70.9582843 480.953906,70.646219 483.434829,67.8397233 C485.915643,65.0332276 486.623471,60.3564322 485.442838,56.4593008 C485.915643,53.4967487 485.442838,50.5341966 484.025826,48.0416682 C482.727008,45.7031991 480.600806,44.3008785 478.356485,44.3008785 C477.294087,41.6503917 475.522463,39.9360058 473.396081,39.3120178 C471.26988,38.8439531 469.143535,39.6240593 467.490067,41.6504868 C466.309477,39.9361009 464.537852,39 462.766336,39 C460.994712,39 459.341316,39.9361484 458.042606,41.6504868 C455.326776,42.2745699 453.082202,44.3009736 451.547251,47.2636684 C450.130239,50.2262205 449.657434,53.9671528 450.36666,57.3973512 L450.36385,57.3939038 Z" id="Fill-1" fill="url(#linearGradient-7)"></path>
                <path d="M1145.36385,46.3939038 C1144.41964,49.8244826 1145.36385,53.8771949 1147.60828,56.0597026 C1149.85271,58.3981717 1152.92315,58.3981717 1155.28556,56.3717442 C1156.58438,58.7102132 1158.35597,59.6463141 1160.71859,59.1782399 L1160.71859,69 L1164.97113,69 L1164.97113,59.3342012 C1166.38814,59.6462427 1167.92335,59.1781828 1169.57671,57.6198153 C1172.29254,59.9582843 1175.95391,59.646219 1178.43483,56.8397233 C1180.91564,54.0332276 1181.62347,49.3564322 1180.44284,45.4593008 C1180.91564,42.4967487 1180.44284,39.5341966 1179.02583,37.0416682 C1177.72701,34.7031991 1175.60081,33.3008785 1173.35648,33.3008785 C1172.29409,30.6503917 1170.52246,28.9360058 1168.39608,28.3120178 C1166.26988,27.8439531 1164.14353,28.6240593 1162.49007,30.6504868 C1161.30948,28.9361009 1159.53785,28 1157.76634,28 C1155.99471,28 1154.34132,28.9361484 1153.04261,30.6504868 C1150.32678,31.2745699 1148.0822,33.3009736 1146.54725,36.2636684 C1145.13024,39.2262205 1144.65743,42.9671528 1145.36666,46.3973512 L1145.36385,46.3939038 Z" id="Fill-1" fill="url(#linearGradient-7)"></path>
                <path d="M1196.36385,60.3939038 C1195.41964,63.8244826 1196.36385,67.8771949 1198.60828,70.0597026 C1200.85271,72.3981717 1203.92315,72.3981717 1206.28556,70.3717442 C1207.58438,72.7102132 1209.35597,73.6463141 1211.71859,73.1782399 L1211.71859,83 L1215.97113,83 L1215.97113,73.3342012 C1217.38814,73.6462427 1218.92335,73.1781828 1220.57671,71.6198153 C1223.29254,73.9582843 1226.95391,73.646219 1229.43483,70.8397233 C1231.91564,68.0332276 1232.62347,63.3564322 1231.44284,59.4593008 C1231.91564,56.4967487 1231.44284,53.5341966 1230.02583,51.0416682 C1228.72701,48.7031991 1226.60081,47.3008785 1224.35648,47.3008785 C1223.29409,44.6503917 1221.52246,42.9360058 1219.39608,42.3120178 C1217.26988,41.8439531 1215.14353,42.6240593 1213.49007,44.6504868 C1212.30948,42.9361009 1210.53785,42 1208.76634,42 C1206.99471,42 1205.34132,42.9361484 1204.04261,44.6504868 C1201.32678,45.2745699 1199.0822,47.3009736 1197.54725,50.2636684 C1196.13024,53.2262205 1195.65743,56.9671528 1196.36666,60.3973512 L1196.36385,60.3939038 Z" id="Fill-1" fill="url(#linearGradient-8)"></path>
            </g>
        </g>
    </g>
</svg>