<?xml version="1.0" encoding="UTF-8"?>
<svg width="91px" height="100px" viewBox="0 0 91 100" version="1.1" xmlns="http://www.w3.org/2000/svg" xmlns:xlink="http://www.w3.org/1999/xlink">
    <!-- Generator: Sketch 60 (88103) - https://sketch.com -->
    <title>Fill 1</title>
    <desc>Created with Sketch.</desc>
    <defs>
        <radialGradient cx="38.23621%" cy="36.6143359%" fx="38.23621%" fy="36.6143359%" r="82.6010896%" gradientTransform="translate(0.382362,0.366143),scale(1.000000,0.906780),rotate(90.000000),translate(-0.382362,-0.366143)" id="radialGradient-1">
            <stop stop-color="#FFFFFF" stop-opacity="0.139723558" offset="0%"></stop>
            <stop stop-color="#FFFFFF" stop-opacity="0.580255682" offset="100%"></stop>
        </radialGradient>
    </defs>
    <g id="Page-1" stroke="none" stroke-width="1" fill="none" fill-rule="evenodd">
        <path d="M50.3505577,99.9977864 C45.7528577,99.9977864 41.1200577,99.3610664 36.5575577,98.0719864 C23.2485577,94.3063864 12.3385577,85.4899864 5.82355772,73.2439864 C-6.44244028,50.1849864 1.26105972,21.1739864 23.3585577,7.20498639 C29.1515577,3.54478639 35.4995577,1.13858639 42.2255577,0.0604863906 C43.9403577,-0.212913609 45.5771577,0.451106391 46.6200577,1.83778639 C47.6981577,3.27138639 47.8856577,5.15418639 47.1239677,6.77918639 C40.5458677,20.7671864 41.2801677,37.0641864 49.0966677,50.3691864 C56.9130677,63.6851864 70.7846677,72.2711864 86.2136677,73.3421864 C87.9988677,73.4671864 89.5574677,74.5530864 90.2722677,76.1819864 C90.9792977,77.7639864 90.7566477,79.5139864 89.6902377,80.8694864 C85.8191377,85.7874864 81.1121377,89.8811864 75.6942377,93.0534854 C67.8622377,97.6589864 59.1672377,100.002686 50.3542377,100.002686 L50.3505577,99.9977864 Z" id="Fill-1" fill="url(#radialGradient-1)"></path>
    </g>
</svg>